<?xml version="1.0" encoding="UTF-8"?>
<svg xmlns="http://www.w3.org/2000/svg" xmlns:xlink="http://www.w3.org/1999/xlink" width="200px" height="200px" viewBox="0 0 200 200" version="1.1">
<g id="surface1">
<path style=" stroke:none;fill-rule:nonzero;fill:rgb(0%,0%,0%);fill-opacity:1;" d="M 93.449219 0.0546875 C 93.019531 0.09375 91.652344 0.230469 90.421875 0.328125 C 62.015625 2.886719 35.40625 18.214844 18.554688 41.769531 C 9.167969 54.863281 3.167969 69.722656 0.898438 85.457031 C 0.0976562 90.949219 0 92.570312 0 100.019531 C 0 107.46875 0.0976562 109.089844 0.898438 114.582031 C 6.335938 152.132812 33.058594 183.683594 69.304688 195.371094 C 75.796875 197.464844 82.640625 198.890625 90.421875 199.75 C 93.449219 200.082031 106.550781 200.082031 109.578125 199.75 C 123.011719 198.265625 134.390625 194.941406 145.609375 189.214844 C 147.332031 188.335938 147.664062 188.101562 147.429688 187.90625 C 147.273438 187.789062 139.941406 177.957031 131.144531 166.070312 L 115.152344 144.46875 L 95.113281 114.816406 C 84.085938 98.515625 75.015625 85.183594 74.9375 85.183594 C 74.859375 85.164062 74.78125 98.339844 74.742188 114.425781 C 74.683594 142.59375 74.664062 143.726562 74.3125 144.390625 C 73.800781 145.351562 73.410156 145.742188 72.589844 146.171875 C 71.964844 146.484375 71.417969 146.542969 68.464844 146.542969 L 65.082031 146.542969 L 64.183594 145.976562 C 63.597656 145.605469 63.167969 145.117188 62.875 144.546875 L 62.464844 143.667969 L 62.503906 104.476562 L 62.5625 65.265625 L 63.167969 64.5 C 63.480469 64.089844 64.144531 63.5625 64.613281 63.308594 C 65.414062 62.917969 65.726562 62.878906 69.109375 62.878906 C 73.097656 62.878906 73.761719 63.035156 74.800781 64.167969 C 75.09375 64.480469 85.941406 80.824219 98.925781 100.507812 C 111.90625 120.191406 129.65625 147.070312 138.378906 160.265625 L 154.214844 184.25 L 155.015625 183.722656 C 162.113281 179.109375 169.617188 172.539062 175.5625 165.699219 C 188.210938 151.175781 196.363281 133.464844 199.101562 114.582031 C 199.902344 109.089844 200 107.46875 200 100.019531 C 200 92.570312 199.902344 90.949219 199.101562 85.457031 C 193.664062 47.90625 166.941406 16.355469 130.695312 4.667969 C 124.300781 2.59375 117.496094 1.167969 109.871094 0.308594 C 107.996094 0.113281 95.074219 -0.101562 93.449219 0.0546875 Z M 134.390625 60.535156 C 135.328125 61.003906 136.089844 61.902344 136.363281 62.839844 C 136.519531 63.347656 136.558594 74.21875 136.519531 98.710938 L 136.460938 133.855469 L 130.265625 124.355469 L 124.046875 114.855469 L 124.046875 89.308594 C 124.046875 72.789062 124.125 63.503906 124.242188 63.054688 C 124.554688 61.960938 125.238281 61.101562 126.179688 60.59375 C 126.980469 60.183594 127.273438 60.144531 130.34375 60.144531 C 133.234375 60.144531 133.742188 60.183594 134.390625 60.535156 Z M 134.390625 60.535156 "/>
</g>
</svg>
